<?xml version="1.0" ?><!DOCTYPE svg  PUBLIC '-//W3C//DTD SVG 1.1//EN'  'http://www.w3.org/Graphics/SVG/1.1/DTD/svg11.dtd'><svg height="512px" style="enable-background:new 0 0 512 512;" version="1.1" viewBox="0 0 512 512" width="512px" xml:space="preserve" xmlns="http://www.w3.org/2000/svg" xmlns:xlink="http://www.w3.org/1999/xlink"><g id="_x35_9_x2C__Precision_x2C__accure_x2C__geometry_x2C__compass_x2C__measurement"><g><path d="M97.82,332.897h-7.001v7.025h7.001V332.897z M267.269,327.853h-17.105    v17.116h17.105V327.853z M431.177,332.897h-7.001v7.025h7.001V332.897z M249.139,34.101v24.259    c1.758-0.33,3.523-0.542,5.341-0.659l0,0l0.849-0.048h0.091h0.095l0.095-0.023h0.025h0.07h0.081h0.108h0.081h0.095h0.095    l0.06-0.023h0.035h0.095h0.095h0.091h0.084h0.095h0.07h0.025h0.095H257h0.095h0.095h0.095h0.095h0.095h0.095h0.081h0.095h0.095    h0.081h0.038h0.057h0.095h0.095h0.095h0.095h0.095h0.045l0.05,0.023h0.091h0.084h0.095h0.081h0.095h0.095l0,0l0.095,0.023h0.095    h0.095h0.095c2.074,0.094,4.124,0.33,6.104,0.707V34.101C265.605,23.138,249.139,23.467,249.139,34.101z M267.858,64.818h-0.035    l-0.024-0.021h-0.035h-0.035l-0.024-0.024h-0.035l-0.035-0.023l0,0h-0.024l-0.035-0.024c-2.759-0.73-5.646-1.179-8.616-1.297    h-0.07h-0.01h-0.085h-0.084l-0.081-0.023h-0.084h-0.08h-0.07h-0.015h-0.08h-0.085h-0.08h-0.084h-0.081h-0.084h-0.011h-0.07h-0.095    h-0.07h-0.095h-0.084h-0.081h-0.095h-0.07h-0.095h-0.08h-0.084h-0.081h-0.014h-0.07h-0.095h-0.081h-0.179h-0.07l0,0h-0.095h-0.081    l-0.084,0.023h-0.081h-0.084h-0.07h-0.01h-0.084h-0.095H255.6l-0.084,0.024h-0.07l-0.505,0.023h-0.084l0,0h-0.081l-0.414,0.024    v0.023h-0.07c-9.584,0.754-18.211,4.949-24.637,11.363c-7.096,7.096-11.479,16.902-11.479,27.725    c0,10.821,4.383,20.629,11.479,27.725c7.096,7.097,16.905,11.481,27.725,11.481c10.82,0,20.629-4.385,27.726-11.481    c7.096-7.096,11.479-16.903,11.479-27.725c0-10.822-4.384-20.629-11.479-27.725C280.388,70.171,274.471,66.635,267.858,64.818z     M269.213,90.776c-3.028-3.018-7.212-4.88-11.834-4.88c-4.622,0-8.805,1.862-11.833,4.88c-3.019,3.017-4.882,7.214-4.882,11.835    s1.863,8.794,4.882,11.834c3.028,3.018,7.212,4.881,11.833,4.881c4.622,0,8.806-1.863,11.834-4.881    c3.019-3.04,4.882-7.213,4.882-11.834S272.231,93.793,269.213,90.776z M420.971,466.265c1.59,0,2.899,1.297,2.899,2.899    c0,1.604-1.31,2.9-2.899,2.9h-25.296c-1.604,0-2.902-1.297-2.902-2.9c0-1.603,1.298-2.899,2.902-2.899H420.971z M343.394,480.197    c1.604,0,2.899,1.297,2.899,2.899c0,1.581-1.295,2.901-2.899,2.901H228.735c-1.604,0-2.899-1.32-2.899-2.901    c0-1.603,1.295-2.899,2.899-2.899H343.394z M83.722,485.998c-1.593,0-2.899-1.32-2.899-2.901c0-1.603,1.306-2.899,2.899-2.899    h50.604c1.593,0,2.902,1.297,2.902,2.899c0,1.581-1.309,2.901-2.902,2.901H83.722z M178.956,485.998    c-1.593,0-2.889-1.32-2.889-2.901c0-1.603,1.295-2.899,2.889-2.899h23.078c1.594,0,2.889,1.297,2.889,2.899    c0,1.581-1.295,2.901-2.889,2.901H178.956z M350.35,369.039c7.686-8.559,16.961-20.699,21.843-29.729h-29.669    C345.127,349.259,347.731,359.161,350.35,369.039z M310.141,322.666c-5.836,3.725-14.347,8.18-19.804,10.373l-1.2,0.472h23.903    L310.141,322.666z M201.599,333.511h24.802l-0.719-0.283c-5.882-2.31-14.758-7.474-20.899-11.599L201.599,333.511z     M172.295,339.311H143.32c4.928,9.123,13.722,20.84,21.159,29.139L172.295,339.311z M162.71,375.051l-0.01-0.023    c-8.911-9.384-19.945-24.07-25.897-35.717h-31.557c-1.59,0-2.889-1.297-2.889-2.9s1.299-2.899,2.889-2.899h28.764    c-0.849-1.862-1.653-3.749-2.408-5.658c-6.198-15.56-9.616-32.534-9.616-50.263c0-1.58,1.295-2.9,2.899-2.9    c1.59,0,2.898,1.32,2.898,2.9c0,17.021,3.253,33.265,9.185,48.117c1.049,2.641,2.19,5.258,3.404,7.804h33.477l9.62-35.929    c-3.264-6.39-9.3-18.719-10.869-25.25c-1.6-6.648-2.463-13.58-2.463-20.652c0-1.557,1.263-2.854,2.829-2.876h-4.043v-8.251h8.229    v8.251h-4.032c1.555,0.022,2.818,1.319,2.818,2.876c0,6.672,0.79,13.132,2.274,19.285c1.074,4.455,4.527,12.094,7.51,18.2    l41.128-153.478c6.671,6.154,15.203,10.303,24.658,11.553l-45.146,168.471c5.728,4.008,15.396,9.761,21.429,12.142    c4.362,1.721,8.914,3.065,13.627,4.03v7.428h-41.374l-12.803,47.787c10.065,5.8,25.002,12.802,35.601,15.749    c11.08,3.088,22.798,4.738,34.913,4.738c11.978,0,23.552-1.603,34.491-4.621c10.68-2.923,25.356-9.712,35.271-15.418    l-12.919-48.235h-39.232v-7.686c4.422-0.967,8.714-2.288,12.827-3.938c5.646-2.287,14.992-7.238,20.38-10.869L263.131,147.24    c9.5-1.203,18.081-5.375,24.777-11.553c14.761,50.759,28.385,102.766,41.872,154.656c2.993-6.483,6.282-14.382,7.377-18.789    c1.579-6.344,2.429-12.991,2.429-19.875c0-1.557,1.264-2.854,2.828-2.876h-4.053v-8.251h8.227v8.251h-4.029    c1.564,0.022,2.828,1.319,2.828,2.876c0,7.309-0.919,14.451-2.617,21.266c-1.58,6.365-7.227,19.072-10.75,26.027l8.994,34.538    h34.123c1.158-2.405,2.229-4.856,3.232-7.356c6.047-14.994,9.381-31.379,9.381-48.564c0-1.58,1.299-2.9,2.889-2.9    c1.604,0,2.902,1.32,2.902,2.9c0,17.916-3.479,35.032-9.799,50.711c-0.705,1.768-1.449,3.488-2.238,5.21h34.846    c1.604,0,2.898,1.296,2.898,2.899s-1.295,2.9-2.898,2.9h-37.626c-5.896,11.505-17.54,26.711-26.62,36.354l2.879,10.773    c0.943,3.514,0.375,7.096-1.285,10.066l-0.06,0.095c-0.919,1.58-2.158,2.994-3.653,4.079l9.43,35.599    c0.4,1.532-0.52,3.111-2.063,3.513c-1.545,0.401-3.124-0.519-3.524-2.052l-9.194-34.679c-3.278,0.636-6.566,0.023-9.301-1.557    c-2.958-1.697-5.271-4.55-6.236-8.086l-0.024-0.095c-10.279,5.753-24.602,12.283-35.292,15.207    c-11.504,3.158-23.598,4.856-36.024,4.856c-12.589,0-24.823-1.744-36.446-4.975c-10.645-2.946-25.216-9.666-35.622-15.536    l-0.144,0.519v0.023c-2.074,7.662-8.227,10.443-14.073,9.736l-9.03,34.114c-0.4,1.532-1.979,2.452-3.538,2.052    c-1.53-0.401-2.45-1.98-2.05-3.537l9.111-34.42c-4.843-2.688-8.146-8.04-6.307-14.924L162.71,375.051z M146.563,472.064    c-1.604,0-2.902-1.297-2.902-2.9c0-1.603,1.298-2.899,2.902-2.899h219.052c1.59,0,2.899,1.297,2.899,2.899    c0,1.604-1.31,2.9-2.899,2.9H146.563z M257.379,80.097c6.201,0,11.834,2.522,15.912,6.601c4.078,4.079,6.602,9.713,6.602,15.914    c0,6.2-2.523,11.834-6.602,15.914c-4.078,4.078-9.711,6.6-15.912,6.6s-11.833-2.521-15.912-6.6    c-4.082-4.08-6.602-9.714-6.602-15.914c0-6.201,2.52-11.835,6.602-15.914C245.545,82.619,251.178,80.097,257.379,80.097z" style="fill-rule:evenodd;clip-rule:evenodd;"/></g></g><g id="Layer_1"/></svg>