<?xml version="1.0" ?><svg id="Layer_1" style="enable-background:new 0 0 128 128;" version="1.1" viewBox="0 0 128 128" xml:space="preserve" xmlns="http://www.w3.org/2000/svg" xmlns:xlink="http://www.w3.org/1999/xlink"><style type="text/css">
	.st0{fill:#581166;}
	.st1{fill:#E83A3A;}
	.st2{fill:#FF5855;}
	.st3{opacity:0.5;}
	.st4{fill:#FFDA8E;}
	.st5{fill:#FFFFFF;}
	.st6{fill:#EABA65;}
	.st7{fill:#E6E6E6;}
	.st8{fill:#460A54;}
	.st9{fill:none;}
	.st10{fill:none;stroke:#581166;stroke-width:2;stroke-linecap:round;stroke-linejoin:round;stroke-miterlimit:10;}
	.st11{fill:#F2F2F2;}
</style><g><g><g><g><path class="st2" d="M70.5,84c-2.3,0.8-4.8,1.3-7.4,1.3c-2.7,0-5.2-0.5-7.6-1.4l-17.3,17.3c7.1,4.7,15.6,7.5,24.8,7.5      c9.1,0,17.6-2.7,24.7-7.3L70.5,84z M41.5,63.6c0-2.6,0.4-5.1,1.3-7.4L25.4,39c-4.7,7.1-7.4,15.5-7.4,24.7s2.7,17.6,7.4,24.7      L42.7,71C41.9,68.7,41.5,66.2,41.5,63.6z M100.7,38.8L83.5,56c0.9,2.4,1.3,4.9,1.3,7.6c0,2.7-0.5,5.2-1.3,7.6l17.3,17.3      c4.7-7.1,7.5-15.6,7.5-24.8C108.2,54.4,105.5,45.9,100.7,38.8z M63.2,18.6c-9.2,0-17.7,2.7-24.8,7.5l17.3,17.3      c2.4-0.9,4.9-1.4,7.6-1.4c2.6,0,5.1,0.4,7.4,1.3l17.3-17.3C80.7,21.3,72.3,18.6,63.2,18.6z"/></g></g></g></g><g><g><g><g><path class="st4" d="M55.6,43.3c-6,2.2-10.7,7-12.9,13L25.4,39c3.4-5.2,7.8-9.6,12.9-12.9L55.6,43.3z"/></g></g></g><g><g><g><path class="st4" d="M100.7,38.8L83.5,56c-2.2-6-7-10.7-13-12.9l17.3-17.3C92.9,29.3,97.4,33.7,100.7,38.8z"/></g></g></g><g><g><g><path class="st4" d="M100.7,88.4c-3.4,5.1-7.8,9.5-12.9,12.9L70.5,84c6-2.2,10.8-6.9,13-12.9L100.7,88.4z"/></g></g></g><g><g><g><path class="st4" d="M55.6,83.9l-17.3,17.3c-5.1-3.4-9.5-7.8-12.9-12.9L42.7,71C44.9,77,49.6,81.7,55.6,83.9z"/></g></g></g></g><g class="st3"><g><g><g><path class="st0" d="M103.3,77.6c-2.8,5.5-6.8,10.3-11.5,14.2c-6.6,5.4-14.7,8.9-23.7,9.9c-9.1,1-17.9-0.9-25.5-4.8      c-5.5-2.8-10.3-6.7-14.2-11.5c-5.4-6.6-9-14.7-9.9-23.7c-0.2-2.2-0.3-4.5-0.2-6.7c-0.9,4.3-1.1,8.8-0.6,13.4      c1,9.1,4.5,17.2,9.9,23.7c3.9,4.8,8.7,8.7,14.2,11.5c7.6,3.9,16.3,5.8,25.5,4.8c9.1-1,17.2-4.5,23.7-9.9      c4.7-3.9,8.7-8.7,11.5-14.2c3-5.7,4.7-12.1,5-18.8C106.7,69.8,105.3,73.9,103.3,77.6z"/></g></g></g></g><g><g><g><g><path class="st0" d="M42.7,58.1c-0.5,0-1-0.2-1.3-0.5L24.1,40.3c-0.6-0.6-0.7-1.6-0.2-2.3c3.5-5.3,8.1-10,13.4-13.5      c0.7-0.5,1.7-0.4,2.4,0.2L56.9,42c0.5,0.5,0.6,1.1,0.5,1.7c-0.1,0.6-0.6,1.1-1.2,1.4c-5.5,2-9.8,6.3-11.7,11.8      c-0.2,0.6-0.7,1.1-1.4,1.2C43,58.1,42.9,58.1,42.7,58.1z M27.9,38.7L42.1,53c2.2-4.4,5.8-8,10.2-10.3L38.1,28.4      C34.2,31.2,30.7,34.8,27.9,38.7z"/></g></g></g><g><g><g><path class="st0" d="M83.5,57.9c-0.1,0-0.3,0-0.4,0c-0.6-0.1-1.1-0.6-1.4-1.2c-2-5.5-6.4-9.8-11.9-11.7      c-0.6-0.2-1.1-0.7-1.2-1.4c-0.1-0.6,0.1-1.3,0.5-1.7l17.3-17.3c0.6-0.6,1.6-0.7,2.4-0.2c5.4,3.6,9.9,8.1,13.5,13.4      c0.5,0.7,0.4,1.7-0.2,2.4L84.8,57.4C84.5,57.7,84,57.9,83.5,57.9z M73.8,42.6c4.4,2.2,8,5.8,10.3,10.2l14.2-14.2      c-2.8-4-6.3-7.4-10.3-10.2L73.8,42.6z"/></g></g></g><g><g><g><path class="st0" d="M87.8,103.2c-0.5,0-1-0.2-1.3-0.5L69.2,85.4c-0.5-0.5-0.6-1.1-0.5-1.7c0.1-0.6,0.6-1.1,1.2-1.4      c5.5-2,9.8-6.3,11.9-11.7c0.2-0.6,0.7-1,1.4-1.2c0.6-0.1,1.3,0.1,1.7,0.5l17.3,17.3c0.6,0.6,0.7,1.6,0.2,2.4      c-3.5,5.4-8.1,9.9-13.5,13.4C88.5,103.1,88.2,103.2,87.8,103.2z M73.8,84.6L88,98.9c4-2.8,7.5-6.3,10.3-10.2L84.1,74.4      C81.8,78.8,78.2,82.4,73.8,84.6z"/></g></g></g><g><g><g><path class="st0" d="M38.3,103.1c-0.4,0-0.7-0.1-1-0.3c-5.3-3.5-10-8.2-13.4-13.5c-0.5-0.7-0.4-1.7,0.2-2.3l17.3-17.3      c0.5-0.5,1.1-0.6,1.7-0.5c0.6,0.1,1.1,0.6,1.4,1.2c2,5.5,6.3,9.8,11.7,11.8c0.6,0.2,1,0.7,1.2,1.4c0.1,0.6-0.1,1.3-0.5,1.7      l-17.3,17.3C39.3,102.9,38.8,103.1,38.3,103.1z M27.9,88.5c2.8,4,6.3,7.5,10.2,10.3l14.2-14.2c-4.4-2.3-8-5.9-10.2-10.3      L27.9,88.5z"/></g></g></g></g><g><g><g><g><path class="st0" d="M63.1,110.5c-25.9,0-46.9-21.1-46.9-46.9s21.1-46.9,46.9-46.9c25.9,0,46.9,21.1,46.9,46.9      S89,110.5,63.1,110.5z M63.1,20.4C39.3,20.4,20,39.8,20,63.6s19.4,43.2,43.2,43.2c23.8,0,43.2-19.4,43.2-43.2S87,20.4,63.1,20.4      z M63.1,87.2c-13,0-23.6-10.6-23.6-23.6S50.2,40,63.1,40c13,0,23.6,10.6,23.6,23.6S76.1,87.2,63.1,87.2z M63.1,43.8      c-10.9,0-19.8,8.9-19.8,19.8s8.9,19.8,19.8,19.8S83,74.5,83,63.6S74.1,43.8,63.1,43.8z"/></g></g></g></g></svg>