<?xml version="1.0" ?><!DOCTYPE svg  PUBLIC '-//W3C//DTD SVG 1.1//EN'  'http://www.w3.org/Graphics/SVG/1.1/DTD/svg11.dtd'><svg enable-background="new 0 0 50 50" height="50px" id="Layer_1" version="1.1" viewBox="0 0 50 50" width="50px" xml:space="preserve" xmlns="http://www.w3.org/2000/svg" xmlns:xlink="http://www.w3.org/1999/xlink"><rect fill="none" height="50" width="50"/><path d="  M44,22.498C44,24.987,41.984,27,39.5,27c-2.487,0-4.5-2.013-4.5-4.502C35,20.014,37.013,18,39.5,18C41.984,18,44,20.014,44,22.498z" fill="none" stroke="#000000" stroke-linecap="round" stroke-linejoin="round" stroke-miterlimit="10" stroke-width="2"/><path d="  M49,36.883c0,0-5.536-4.832-12.61-4.832c-7.077,0-13.186,3.527-20.993,3.527C6.053,35.578,1,31.285,1,31.285" fill="none" stroke="#000000" stroke-linecap="round" stroke-linejoin="round" stroke-miterlimit="10" stroke-width="2"/><path d="  M7.711,34.285l17.05-10.16l-1.866-4.136c0,0-0.405-1.689-1.805-1.222c-1.398,0.465-8.156,3.934-9.29,4.369  c-2.874,1.105-4.198-1.892-1.417-3.512c3.601-2.103,10.365-5.443,11.393-5.993c1.3-0.699,2.523-0.826,3.624,1.057  c1.599,2.739,6.571,10.254,7.63,12.115c1.059,1.861,1.632,3.432-0.393,5.379" fill="none" stroke="#000000" stroke-linecap="round" stroke-linejoin="round" stroke-miterlimit="10" stroke-width="2"/></svg>