<?xml version="1.0" encoding="iso-8859-1"?>
<!-- Generator: Adobe Illustrator 18.0.0, SVG Export Plug-In . SVG Version: 6.00 Build 0)  -->
<!DOCTYPE svg PUBLIC "-//W3C//DTD SVG 1.1//EN" "http://www.w3.org/Graphics/SVG/1.1/DTD/svg11.dtd">
<svg version="1.1" id="Capa_1" xmlns="http://www.w3.org/2000/svg" xmlns:xlink="http://www.w3.org/1999/xlink" x="0px" y="0px"
	 viewBox="0 0 209.88 209.88" style="enable-background:new 0 0 209.88 209.88;" xml:space="preserve">
<path d="M182.776,135.166v-29h-15v7h-27.884L126.767,85.5h8.495V72.692c4.509-6.189,7.178-13.8,7.178-22.026
	c0-18.109-12.904-33.26-30-36.744V0h-15v13.922c-17.096,3.484-30,18.635-30,36.744c0,8.227,2.669,15.837,7.178,22.026V85.5h8.495
	l-13.125,27.666H42.104v-7h-15v29h15v-7h20.768l-35.715,75.286l13.553,6.429l38.765-81.714H97.44v7h15v-7h17.965l38.765,81.714
	l13.553-6.429l-35.715-75.286h20.768v7H182.776z M127.44,50.666c0,7.234-3.436,13.677-8.756,17.795l-0.614-1.295h-5.63V29.457
	C121.17,32.553,127.44,40.889,127.44,50.666z M97.44,29.457v37.709h-5.63l-0.614,1.295c-5.32-4.119-8.756-10.562-8.756-17.795
	C82.44,40.889,88.711,32.553,97.44,29.457z M112.44,113.166v-7h-15v7h-10.85l12.11-25.529c2.03,0.341,4.113,0.529,6.239,0.529
	s4.209-0.188,6.239-0.529l12.11,25.529H112.44z"/>
<g>
</g>
<g>
</g>
<g>
</g>
<g>
</g>
<g>
</g>
<g>
</g>
<g>
</g>
<g>
</g>
<g>
</g>
<g>
</g>
<g>
</g>
<g>
</g>
<g>
</g>
<g>
</g>
<g>
</g>
</svg>
